<svg xmlns="http://www.w3.org/2000/svg" viewBox="0 0 512 512"><g fill="#fff"><path d="M256.052 52.058c-70.494 0-127.845 57.351-127.845 127.844 0 70.494 57.351 127.845 127.845 127.845s127.845-57.351 127.845-127.845S326.546 52.058 256.052 52.058zm0 240.002c-61.845 0-112.159-50.314-112.159-112.159S194.208 67.743 256.052 67.743s112.159 50.315 112.159 112.158c0 61.845-50.314 112.159-112.159 112.159z"/><path d="m202.504 118.355 11.091 11.092-32.002 32.002-11.091-11.092zM170.502 206.358l103.999-103.999 11.091 11.092-103.998 103.998z"/><path d="M487.898 375.105V44.057h-75.296c-6.139-14.108-20.207-24-36.549-24-16.187 0-30.14 9.708-36.369 23.604-25.118-15.469-53.812-23.604-83.633-23.604-30.855 0-59.689 8.797-84.145 24H112.05v15.686h38.709c-19.785 17.359-35.263 39.511-44.598 64.627-.761.081-1.517.179-2.268.29V11.899H88.208v117.517c-18.897 8.961-32.001 28.219-32.001 50.485 0 28.803 21.92 52.578 49.955 55.531 9.377 25.23 24.95 47.47 44.862 64.863-11.187.578-22.259 2.302-33.01 5.186a157.715 157.715 0 0 0-8.418 2.511c-27.627 9.084-51.425 25.165-69.704 45.902V59.743h40.157V44.057H24.206v330.93c-15.341 24.646-24 53.605-24 84.167L0 499.866l15.686.079.042-8.197h72.166v-63.686h-68.59a143.21 143.21 0 0 1 4.629-16.314H56.05v-15.686H30.477a143.275 143.275 0 0 1 9.223-16.157h.191v-.299c16.62-24.971 41.044-44.621 70.586-55.303 13.071 10.449 60.006 45.376 113.731 54.382v25.063H328.21v96.159h15.686V388.062H239.894v-8.965c5.347.426 10.734.65 16.157.65 52.818 0 102.471-20.35 140.073-57.326 31.392 9.954 58.144 30.44 76.087 57.29v.193h.128c.141.211.28.425.419.637-23.377 6.669-40.548 28.208-40.548 53.696 0 30.792 25.051 55.843 55.843 55.843h7.66l-.187 10.017h16.434l.036-40.855.001-.156c-.018-30.809-8.854-59.594-24.099-83.981zM100.925 218.48c-16.746-4.837-29.032-20.295-29.032-38.578s12.286-33.741 29.032-38.578c-3.074 12.36-4.717 25.28-4.717 38.578s1.643 26.217 4.717 38.578zM72.208 443.746V476.062H15.807l.045-8.911 40.082.594.233-15.684-40.044-.594c.138-2.59.343-5.164.617-7.722h55.468zM376.054 35.742c13.32 0 24.158 10.837 24.158 24.158 0 13.32-10.837 24.157-24.158 24.157S351.896 73.22 351.896 59.9c0-13.321 10.837-24.158 24.158-24.158zM248.21 363.886h-.001c-42.444-1.765-82.304-17.843-114.027-45.925a144.638 144.638 0 0 1 25.157-2.217h12.568c22.372 13.908 48.407 22.451 76.303 23.806v24.336zM111.893 179.901c0-79.49 64.669-144.159 144.159-144.159 28.795 0 56.416 8.419 80.163 24.35.105 21.816 17.829 39.541 39.644 39.645 15.931 23.746 24.352 51.368 24.352 80.163 0 79.49-64.67 144.159-144.159 144.159s-144.159-64.668-144.159-144.158zm152.002 183.985v-24.335c27.895-1.354 53.931-9.898 76.303-23.806h12.67c8.552 0 16.93.756 25.075 2.198-31.725 28.094-71.592 44.178-114.048 45.943zm208.318-9.817c-27.487-31.166-66.948-51.533-111.106-53.797 19.9-17.39 35.463-39.621 44.837-64.841 28.033-2.952 49.955-26.727 49.955-55.531 0-28.783-21.891-52.545-49.897-55.523a158.722 158.722 0 0 0-13.707-28.109c13.895-6.229 23.604-20.182 23.604-36.369 0-.052-.004-.105-.004-.157h56.319v294.327zM411.22 141.335c16.725 4.851 28.992 20.298 28.992 38.566 0 18.283-12.286 33.741-29.033 38.578a159.648 159.648 0 0 0 4.718-38.578c0-13.143-1.585-26.068-4.677-38.566zm84.797 333.06h-7.962c-22.143 0-40.157-18.014-40.157-40.157 0-19.727 14.302-36.165 33.079-39.52a142.381 142.381 0 0 1 11.923 33.345h-20.845v15.686h23.425c.541 5.019.827 10.114.833 15.274l-.296 15.372z"/></g></svg>