<svg xmlns="http://www.w3.org/2000/svg" viewBox="0 0 512 512"><g fill="#fff"><path d="M164.069 96.034h176.072v15.602H164.069zM252.1 15.602c39.828 0 72.23 32.402 72.23 72.23h15.602C339.932 39.402 300.531 0 252.1 0s-87.832 39.402-87.832 87.832h15.602c-.001-39.828 32.401-72.23 72.23-72.23zM252.1 264.105c-21.953 0-39.813 17.86-39.813 39.813v72.028c0 21.953 17.86 39.814 39.813 39.814s39.813-17.861 39.813-39.814v-72.028c-.001-21.953-17.861-39.813-39.813-39.813zm24.21 111.841c0 13.351-10.861 24.212-24.211 24.212s-24.211-10.861-24.211-24.212v-72.028c0-13.35 10.861-24.211 24.211-24.211s24.211 10.861 24.211 24.211v72.028z"/><path d="M204.082 64.03h16.007v15.602h-16.007zM244.096 64.03h16.006v15.602h-16.006zM284.109 64.03h16.007v15.602h-16.007zM387.951 279.706V110.32c9.306-3.237 16.006-12.091 16.006-22.487 0-13.127-10.68-23.807-23.807-23.807s-23.807 10.68-23.807 23.807c0 10.396 6.699 19.251 16.006 22.487v153.785h-32.417V120.048H164.268v264.104h-40.017v112.045h-16.208v15.602h48.593v-15.602h-16.783v-96.443h24.415v40.017h48.019V512h15.602v-8.206h48.423V512h15.602v-72.23h48.019v-40.017h24.415v96.443h-16.783v15.602h48.593v-15.602H379.95V384.151h-40.017V279.706h48.018zM371.945 87.832c0-4.524 3.681-8.206 8.206-8.206s8.206 3.681 8.206 8.206c0 4.525-3.681 8.206-8.206 8.206s-8.206-3.681-8.206-8.206zM276.31 488.193h-48.423v-24.415h48.423v24.415zm0-40.016h-48.423v-8.407h48.423v8.407zm15.602-24.009v-8.206H276.31v8.206h-48.423v-8.206h-15.602v8.206h-32.417v-216.49h17.381c3.488 13.781 15.99 24.009 30.84 24.009h48.018c14.849 0 27.353-10.229 30.84-24.009h17.381v216.49h-32.416zm-80.031-224.291c0-8.938 7.271-16.209 16.209-16.209h48.018c8.938 0 16.209 7.271 16.209 16.209 0 8.938-7.271 16.208-16.209 16.208H228.09c-8.937 0-16.209-7.27-16.209-16.208zm112.45-7.801h-17.382c-3.488-13.782-15.991-24.01-30.84-24.01H228.09c-14.85 0-27.353 10.229-30.84 24.01h-17.381V135.65H324.33v56.426z"/></g></svg>