<?xml version="1.0" encoding="iso-8859-1"?>
<!-- Generator: Adobe Illustrator 22.1.0, SVG Export Plug-In . SVG Version: 6.00 Build 0)  -->
<svg xmlns="http://www.w3.org/2000/svg" xmlns:xlink="http://www.w3.org/1999/xlink" version="1.1" id="Layer_3" x="0px" y="0px" viewBox="0 0 64 64" style="enable-background:new 0 0 64 64;" xml:space="preserve" width="512" height="512">
<g>
	<g>
		<path style="fill:#C9CACA;" d="M42,58c-2.757,0-5-2.243-5-5v-4c0-2.757,2.243-5,5-5s5,2.243,5,5v4C47,55.757,44.757,58,42,58z     M42,46c-1.654,0-3,1.346-3,3v4c0,1.654,1.346,3,3,3s3-1.346,3-3v-4C45,47.346,43.654,46,42,46z"/>
	</g>
	<g>
		<path style="fill:#C9CACA;" d="M42,42c-2.757,0-5-2.243-5-5v-4c0-2.757,2.243-5,5-5s5,2.243,5,5v4C47,39.757,44.757,42,42,42z     M42,30c-1.654,0-3,1.346-3,3v4c0,1.654,1.346,3,3,3s3-1.346,3-3v-4C45,31.346,43.654,30,42,30z"/>
	</g>
	<g>
		<path style="fill:#C9CACA;" d="M30,58c-2.757,0-5-2.243-5-5v-4c0-2.757,2.243-5,5-5s5,2.243,5,5v4C35,55.757,32.757,58,30,58z     M30,46c-1.654,0-3,1.346-3,3v4c0,1.654,1.346,3,3,3s3-1.346,3-3v-4C33,47.346,31.654,46,30,46z"/>
	</g>
	<g>
		<path style="fill:#C9CACA;" d="M18,58h-4c-2.757,0-5-2.243-5-5s2.243-5,5-5h4c2.757,0,5,2.243,5,5S20.757,58,18,58z M14,50    c-1.654,0-3,1.346-3,3s1.346,3,3,3h4c1.654,0,3-1.346,3-3s-1.346-3-3-3H14z"/>
	</g>
	<g>
		<path style="fill:#C9CACA;" d="M30,42c-2.757,0-5-2.243-5-5v-4c0-2.757,2.243-5,5-5s5,2.243,5,5v4C35,39.757,32.757,42,30,42z     M30,30c-1.654,0-3,1.346-3,3v4c0,1.654,1.346,3,3,3s3-1.346,3-3v-4C33,31.346,31.654,30,30,30z"/>
	</g>
	<g>
		<path style="fill:#DFE0E0;" d="M13,54h-3c-2.757,0-5-2.243-5-5v-6h2v6c0,1.654,1.346,3,3,3h3V54z"/>
	</g>
	<g>
		<path style="fill:#DFE0E0;" d="M56,62h-7c-4.411,0-8-3.589-8-8h2c0,3.309,2.691,6,6,6h7V62z"/>
	</g>
	<g>
		<rect x="41" y="38" style="fill:#DFE0E0;" width="2" height="10"/>
	</g>
	<g>
		<path style="fill:#DFE0E0;" d="M43,32h-2v-1c0-2.757-2.243-5-5-5s-5,2.243-5,5v1h-2v-1c0-3.859,3.141-7,7-7s7,3.141,7,7V32z"/>
	</g>
	<g>
		<rect x="29" y="38" style="fill:#DFE0E0;" width="2" height="10"/>
	</g>
	<g>
		<rect x="19" y="52" style="fill:#DFE0E0;" width="10" height="2"/>
	</g>
	<circle style="fill:#74564A;" cx="8" cy="39" r="6"/>
	<path style="fill:#D1D8DB;" d="M54,20v-6H40c-11.162,0-22.152,2.747-32,8l0,0l0,0C17.443,9.41,32.262,2,48,2h14l-0.192,0.192   C59.37,4.63,58,7.937,58,11.385V20"/>
	<path style="fill:#C9CACA;" d="M58,20v-8.615c0-0.806,0.082-1.603,0.228-2.385H42C29.707,9,17.987,13.538,8.939,21.518   C18.546,16.584,29.191,14,40,14h14v6H58z"/>
	<rect x="52" y="26" style="fill:#74564A;" width="8" height="28"/>
	<path style="fill:#657B88;" d="M50,54h12v2c0,3.314-2.686,6-6,6h0c-3.314,0-6-2.686-6-6V54z"/>
	<path style="fill:#657B88;" d="M62,26H50v-2c0-3.314,2.686-6,6-6h0c3.314,0,6,2.686,6,6V26z"/>
	<path style="fill:#946C5A;" d="M60,26.586l-4,4l-4-4v2.828L54.586,32L52,34.586v2.828L54.586,40L52,42.586v2.828L54.586,48   L52,50.586v2.828l4-4l4,4v-2.828L57.414,48L60,45.414v-2.828L57.414,40L60,37.414v-2.828L57.414,32L60,29.414V26.586z M58.586,44   L56,46.586L53.414,44L56,41.414L58.586,44z M58.586,36L56,38.586L53.414,36L56,33.414L58.586,36z"/>
</g>
</svg>
