<?xml version="1.0" encoding="iso-8859-1"?>
<!-- Generator: Adobe Illustrator 21.0.0, SVG Export Plug-In . SVG Version: 6.00 Build 0)  -->
<svg version="1.1" id="Capa_1" xmlns="http://www.w3.org/2000/svg" xmlns:xlink="http://www.w3.org/1999/xlink" x="0px" y="0px"
	 viewBox="0 0 512 512" style="enable-background:new 0 0 512 512;" xml:space="preserve">
<g>
	<path style="fill:#7E8B96;" d="M290.294,47.765c0.913-2.988-3.061-4.939-4.867-2.376c-22.818,32.375-64.656,56.074-91.52,68.827
		c-12.327,5.863-26.802,4.119-37.303-4.182c-1.214-0.955-2.366-2.003-3.466-3.134C107.471,59.76,50.235,37.212,19.977,27.925
		c-2.988-0.924-4.939,3.061-2.376,4.867c32.375,22.818,56.074,64.656,68.827,91.52c6.527,13.749,3.611,30.175-7.315,40.769
		C31.972,210.748,9.424,267.985,0.137,298.243c-0.924,2.988,3.061,4.939,4.867,2.376c22.818-32.375,64.656-56.074,91.52-68.827
		c13.749-6.527,30.175-3.611,40.769,7.315c4.784,4.939,9.692,9.609,14.683,14.019c42.678,37.698,91.386,56.645,118.479,64.957
		c2.988,0.924,4.939-3.061,2.376-4.867c-32.385-22.818-56.074-64.656-68.827-91.52c-6.537-13.749-3.621-30.175,7.315-40.769
		C258.449,135.259,280.997,78.023,290.294,47.765z M145.21,197.331c-0.726,0-1.442-0.031-2.158-0.104
		c-12.421-1.079-22.164-11.518-22.164-24.219c0-13.438,10.895-24.333,24.322-24.333c0.353,0,0.695,0.01,1.048,0.031
		c12.95,0.54,23.274,11.217,23.274,24.302C169.533,186.436,158.648,197.331,145.21,197.331z"/>
	<path style="fill:#7E8B96;" d="M511.863,213.757c0.924-2.988-3.061-4.939-4.867-2.376c-22.818,32.375-64.656,56.074-91.52,68.827
		c-13.718,6.516-30.113,3.621-40.707-7.253c-0.021-0.021-0.042-0.042-0.062-0.062c-45.667-47.14-102.903-69.688-133.161-78.975
		c-2.988-0.924-4.939,3.061-2.376,4.867c32.385,22.818,56.074,64.656,68.827,91.52c6.537,13.749,3.621,30.175-7.315,40.769
		c-47.13,45.667-69.678,102.903-78.975,133.161c-0.913,2.988,3.061,4.939,4.867,2.376c22.818-32.375,64.656-56.074,91.52-68.827
		c13.749-6.537,30.175-3.621,40.769,7.315c10.003,10.314,20.545,19.456,31.254,27.539c38.175,28.836,78.27,44.183,101.907,51.436
		c2.988,0.924,4.939-3.061,2.376-4.867c-32.375-22.818-56.074-64.656-68.827-91.52c-6.527-13.749-3.611-30.175,7.315-40.769
		C480.028,301.252,502.576,244.015,511.863,213.757z M368.979,363.22c-0.726,0.073-1.453,0.104-2.189,0.104
		c-13.438,0-24.322-10.895-24.322-24.333c0-13.427,10.885-24.322,24.322-24.322c0.311,0,0.612,0.01,0.924,0.021
		c13.002,0.477,23.399,11.186,23.399,24.302C391.112,351.692,381.379,362.12,368.979,363.22z"/>
</g>
<g>
	<path style="fill:#A2ABB8;" d="M211.319,180.926c-10.937,10.594-13.853,27.02-7.315,40.769
		c12.753,26.865,36.442,68.703,68.827,91.52c2.563,1.806,0.612,5.79-2.376,4.867c-27.093-8.312-75.8-27.259-118.479-64.957
		c-5.116-17.422-8.218-36.235-8.924-55.898c0.716,0.073,1.432,0.104,2.158,0.104c13.438,0,24.322-10.895,24.322-24.322
		c0-13.085-10.325-23.762-23.274-24.302c2.335-13.572,5.832-26.533,10.345-38.673c10.501,8.301,24.976,10.044,37.303,4.182
		c26.865-12.753,68.703-36.453,91.52-68.827c1.806-2.563,5.78-0.612,4.867,2.376C280.997,78.023,258.449,135.259,211.319,180.926z"
		/>
	<path style="fill:#A2ABB8;" d="M432.888,346.919c-10.926,10.594-13.842,27.02-7.315,40.769
		c12.753,26.865,36.453,68.703,68.827,91.521c2.563,1.805,0.612,5.79-2.376,4.867c-23.638-7.253-63.732-22.6-101.907-51.436
		c-10.48-20.379-17.848-43.944-21.137-69.419c12.4-1.1,22.133-11.528,22.133-24.229c0-13.116-10.397-23.824-23.399-24.302
		c1.1-14.517,3.507-28.504,7.056-41.734c10.594,10.875,26.989,13.77,40.707,7.253c26.865-12.753,68.703-36.453,91.521-68.827
		c1.805-2.563,5.79-0.612,4.867,2.376C502.576,244.015,480.028,301.252,432.888,346.919z"/>
</g>
<g>
</g>
<g>
</g>
<g>
</g>
<g>
</g>
<g>
</g>
<g>
</g>
<g>
</g>
<g>
</g>
<g>
</g>
<g>
</g>
<g>
</g>
<g>
</g>
<g>
</g>
<g>
</g>
<g>
</g>
</svg>
