<?xml version="1.0" encoding="utf-8"?>
<svg version="1.1" xmlns="http://www.w3.org/2000/svg" xmlns:xlink="http://www.w3.org/1999/xlink" x="0px" y="0px" viewBox="0 0 67.6 67.6" xml:space="preserve">
    <g>
        <rect fill="#F6343F" width="67.6" height="67.6"/>
        <path fill="#FFFFFF" d="M54.2,59.7L54.2,59.7c0,0.3-0.1,0.5-0.2,0.7l0,0l0,0c-0.1,0.2-0.4,0.3-0.6,0.2h-0.9v-1.9h0.9 c0.2,0,0.4,0.1,0.6,0.2l0,0C54.2,59.3,54.2,59.5,54.2,59.7L54.2,59.7z M52.6,55.3h0.8c0.2,0,0.4,0.1,0.5,0.2l0,0 c0.1,0.2,0.2,0.4,0.2,0.6c0,0.2-0.1,0.5-0.2,0.7v0c-0.1,0.1-0.3,0.2-0.5,0.2h-0.8V55.3z M56,59.7L56,59.7c0-0.7-0.3-1.4-0.9-1.9l0,0 l0,0c0.5-0.5,0.7-1.1,0.7-1.7v0c0-0.7-0.2-1.3-0.7-1.9l0,0c-0.5-0.5-1.2-0.8-1.9-0.8h-2.5c-0.1,0-0.2,0.1-0.2,0.2c0,0,0,0,0,0v8.7 c0,0.1,0.1,0.2,0.2,0.2h2.6c0.8,0,1.5-0.3,2-0.9l0,0C55.9,61.1,56.1,60.4,56,59.7"/>
        <path fill="#FFFFFF" d="M49.3,59.9v-6.2c0-0.1-0.1-0.1-0.1-0.1h-1.6c-0.1,0-0.1,0.1-0.2,0.1c0,0,0,0,0,0v6.2c0,0.3-0.1,0.5-0.2,0.7 c-0.3,0.3-0.7,0.3-1,0.1c0,0,0,0-0.1-0.1c-0.1-0.2-0.2-0.4-0.2-0.7v-6.2c0-0.1-0.1-0.1-0.2-0.1h-1.6c-0.1,0-0.1,0.1-0.2,0.1v6.2 c-0.1,0.7,0.2,1.5,0.7,2l0,0c1.1,1,2.8,1,3.9,0l0,0C49.1,61.3,49.4,60.6,49.3,59.9"/>
        <path fill="#FFFFFF" d="M42.6,53.5C42.6,53.5,42.6,53.5,42.6,53.5L42.6,53.5H41c-0.1,0-0.2,0.1-0.2,0.2c0,0,0,0,0,0V57h-1.6v-3.4 c0-0.1-0.1-0.2-0.2-0.2c0,0,0,0,0,0h-1.5c-0.1,0-0.2,0.1-0.2,0.2c0,0,0,0,0,0v8.7c0,0.1,0.1,0.2,0.2,0.2h1.5c0.1,0,0.2-0.1,0.2-0.2 c0,0,0,0,0,0v-3.5h1.6v3.5c0,0.1,0.1,0.2,0.2,0.2h1.5c0.1,0,0.2-0.1,0.2-0.2c0,0,0,0,0,0v-8.7C42.7,53.6,42.7,53.5,42.6,53.5z"/>
        <path fill="#FFFFFF" d="M34.5,59.7L34.5,59.7c0,0.3-0.1,0.5-0.2,0.7l0,0l0,0c-0.1,0.2-0.4,0.3-0.6,0.2h-0.9v-1.9h0.9 c0.2,0,0.4,0.1,0.6,0.2l0,0C34.4,59.3,34.5,59.5,34.5,59.7L34.5,59.7z M32.8,55.3L32.8,55.3l0.8,0c0.2,0,0.4,0.1,0.5,0.2l0,0 c0.1,0.2,0.2,0.4,0.2,0.6c0,0.2-0.1,0.5-0.2,0.7v0c-0.1,0.1-0.3,0.2-0.5,0.2h-0.8V55.3z M36.3,59.7L36.3,59.7c0-0.7-0.3-1.4-0.9-1.9 h0l0,0c0.5-0.5,0.7-1.1,0.7-1.7c0-0.7-0.2-1.3-0.7-1.8v0c-0.5-0.5-1.2-0.8-1.9-0.8h-2.5c-0.1,0-0.2,0.1-0.2,0.2c0,0,0,0,0,0v8.7 c0,0.1,0.1,0.2,0.2,0.2h2.6c0.8,0,1.5-0.3,2-0.9l0,0C36.1,61.1,36.3,60.4,36.3,59.7"/>
        <path fill="#FFFFFF" d="M29.6,59.9v-6.2c0-0.1-0.1-0.1-0.1-0.1h-1.6c-0.1,0-0.1,0.1-0.2,0.1v6.2c0,0.3-0.1,0.5-0.2,0.7 c-0.3,0.3-0.7,0.3-1,0c0,0,0,0-0.1-0.1c-0.1-0.2-0.2-0.4-0.2-0.7v-6.2c0-0.1-0.1-0.1-0.1-0.1c0,0,0,0,0,0h-1.6 c-0.1,0-0.1,0.1-0.2,0.1c0,0,0,0,0,0v6.2c-0.1,0.7,0.2,1.5,0.7,2.1c0.5,0.5,1.2,0.8,1.9,0.8h0c0.7,0,1.4-0.2,1.9-0.8 C29.4,61.3,29.7,60.6,29.6,59.9"/>
        <path fill="#FFFFFF" d="M21.2,57L21.2,57L21.2,57c-0.2,0.2-0.4,0.3-0.6,0.3h-0.8v-1.9h0.8c0.2,0,0.5,0.1,0.6,0.3v0 c0.2,0.2,0.2,0.4,0.2,0.7v0C21.4,56.6,21.4,56.8,21.2,57z M22.1,58.6L22.1,58.6L22.1,58.6c0.2-0.1,0.3-0.2,0.4-0.4l0,0 c0.5-0.5,0.7-1.3,0.7-2v0c0-0.7-0.2-1.4-0.7-1.9l0,0c-0.5-0.5-1.2-0.9-1.9-0.9h-2.6c-0.1,0-0.2,0.1-0.2,0.2c0,0,0,0,0,0v8.7 c0,0.1,0.1,0.2,0.2,0.2h1.5c0.1,0,0.2-0.1,0.2-0.2c0,0,0,0,0,0v-3.2h0.6l1,3.3c0,0.1,0.1,0.1,0.1,0.1h1.6c0,0,0.1,0,0.1-0.1 c0,0,0-0.1,0-0.1L22.1,58.6"/>
        <path fill="#FFFFFF" d="M16.1,54.1c-0.5-0.5-1.2-0.8-1.9-0.8l0,0h0c-0.7,0-1.4,0.3-1.9,0.8l0,0c-0.5,0.6-0.7,1.3-0.7,2v3.7 c-0.1,0.7,0.2,1.5,0.7,2.1c0.5,0.5,1.2,0.8,1.9,0.8h0c0.7,0,1.4-0.3,1.9-0.8c0.5-0.6,0.7-1.3,0.7-2.1v-2c0-0.1-0.1-0.2-0.2-0.2h-2.3 c-0.1,0-0.2,0.1-0.2,0.2v1.5c0,0.1,0.1,0.2,0.2,0.2h0.6v0.3c0,0.3-0.1,0.5-0.2,0.7l0,0c-0.1,0.2-0.3,0.3-0.6,0.3h0 c-0.2,0-0.4-0.1-0.6-0.2c-0.2-0.2-0.2-0.5-0.2-0.7v-3.7c0-0.3,0.1-0.5,0.2-0.7c0.1-0.2,0.3-0.3,0.6-0.3h0c0.2,0,0.4,0.1,0.6,0.2l0,0 c0.1,0.2,0.2,0.5,0.2,0.7v0.3c0,0.1,0.1,0.1,0.2,0.1h1.5c0.1,0,0.1-0.1,0.2-0.1v-0.3C16.8,55.4,16.6,54.7,16.1,54.1L16.1,54.1"/>
        <path fill="#FFFFFF" d="M49.4,18.3c-0.1-0.1-0.1-0.2-0.2-0.4v0c-0.4-4.6-1.1-7.6-1.1-7.6c-0.1-0.5-0.6-0.9-1.1-1l-3.7-0.4 c0,0-0.1,0-0.1,0c-0.4,0-0.8,0.3-0.8,0.8V11c0,0,0,0,0,0c0,0,0,0,0,0l0,0c-2.2-2-4.7-3.9-7.4-5.6c-0.5-0.3-1.1-0.5-1.8-0.5v0h0v0 c-0.7,0-1.3,0.2-1.8,0.5c-12.6,7.8-19.6,20.5-19.8,21.2c-0.1,0.2-0.1,0.3-0.1,0.5c0,0.6,0.4,1.1,0.9,1.2l3.6,0.7 c0.5,0.1,0.9,0.6,0.9,1.1c0,0.6,0.7,15,1.6,18.7c0.1,0.5,0.6,0.9,1.2,0.9h0c2.1-0.1,4.1-0.1,6.2-0.1c0,0,0,0,0,0h0l0,0 c0.1,0,0.1,0,0.2,0c0.2,0,0.4-0.2,0.4-0.4c0,0,0,0,0,0c-0.1-1.3-0.3-4.1-0.4-7.1c0-0.1,0-0.2,0-0.2h0c0-0.3-0.2-0.5-0.4-0.6 c-1.1-0.7-1.8-1.8-1.9-3.2c-0.2-5-0.3-10.8,0-15.4c0-0.4,0.3-0.7,0.7-0.7c0.4,0,0.7,0.3,0.7,0.7c0,0,0,0,0,0.1 c-0.2,3-0.2,6.6-0.1,10.1c0,0.5,0.4,0.9,0.9,0.9c0.5,0,0.9-0.4,0.9-0.9c-0.1-3.6,0-7.2,0.1-10.2c0-0.4,0.3-0.7,0.7-0.7 c0.4,0,0.7,0.3,0.7,0.7c0,0,0,0,0,0.1c-0.2,3-0.2,6.6-0.1,10.1c0,0,0,0,0,0c0,0.5,0.4,0.9,0.9,0.8c0.5,0,0.9-0.4,0.8-0.9 c-0.1-3.5,0-7.1,0.1-10.2c0-0.4,0.3-0.7,0.7-0.7c0.4,0,0.7,0.3,0.7,0.7c0,0,0,0,0,0.1c-0.3,4.4-0.2,10,0,14.9c0,0,0,0,0,0 c0,0,0,0,0,0.1c0,0,0,0,0,0c0,0,0,0,0,0c0,1.3-0.7,2.5-1.7,3.2c-0.2,0.1-0.3,0.3-0.3,0.6c0,0-0.1,0.8,0.2,4.4 c0.2,1.6,0.3,2.7,0.3,3.2c0,0.2,0.2,0.3,0.4,0.3c0.1,0,0.2,0,0.3,0h0c0.7,0,1.4,0,2.2,0h0.1h0.1c0.9,0,1.9,0,2.7,0l2.1,0 c0,0,0,0,0,0c0.2,0,0.4-0.1,0.4-0.3c0.5-4.4,0.6-6.8,0.6-6.8c0-0.2-0.2-0.4-0.4-0.4l-2.5-0.3c-0.4-0.1-0.6-0.3-0.7-0.6 c-0.1-0.2,0-0.4,0-0.4c1-14.6,5.8-19.5,5.8-19.5c0.1-0.1,0.2-0.2,0.2-0.2c0.1-0.1,0.3-0.1,0.5-0.1c0.3,0,0.6,0.2,0.7,0.5 c0,0,0,0.1,0.1,0.4c0.4,4.6,0.2,12.4,0,18.5c-0.2,5.2-0.5,9.2-0.5,9.2c0,0,0,0,0,0c0,0.2,0.1,0.3,0.3,0.3v0c1.4,0,2.7,0.1,4.1,0.1h0 c0.6,0,1.1-0.4,1.2-0.9c0.9-3.7,1.6-18.1,1.6-18.7c0.1-0.5,0.4-0.9,0.9-1.1l3.6-0.7c0.5-0.1,0.9-0.6,0.9-1.2c0-0.2,0-0.4-0.1-0.5 C54.8,26.2,52.9,22.7,49.4,18.3"/>
    </g>
</svg>
