<svg xmlns="http://www.w3.org/2000/svg" viewBox="0 0 67.6 67.6" xml:space="preserve"><path fill="#F6343F" d="M0 0h67.6v67.6H0z"/><path fill="#FFF" d="M54.2 59.7c0 .3-.1.5-.2.7-.1.2-.4.3-.6.2h-.9v-1.9h.9c.2 0 .4.1.6.2.2.4.2.6.2.8zm-1.6-4.4h.8c.2 0 .4.1.5.2.1.2.2.4.2.6 0 .2-.1.5-.2.7-.1.1-.3.2-.5.2h-.8v-1.7zm3.4 4.4c0-.7-.3-1.4-.9-1.9.5-.5.7-1.1.7-1.7 0-.7-.2-1.3-.7-1.9-.5-.5-1.2-.8-1.9-.8h-2.5c-.1 0-.2.1-.2.2v8.7c0 .1.1.2.2.2h2.6c.8 0 1.5-.3 2-.9.6-.5.8-1.2.7-1.9M49.3 59.9v-6.2c0-.1-.1-.1-.1-.1h-1.6c-.1 0-.1.1-.2.1v6.2c0 .3-.1.5-.2.7-.3.3-.7.3-1 .1l-.1-.1c-.1-.2-.2-.4-.2-.7v-6.2c0-.1-.1-.1-.2-.1h-1.6c-.1 0-.1.1-.2.1v6.2c-.1.7.2 1.5.7 2 1.1 1 2.8 1 3.9 0 .6-.6.9-1.3.8-2M42.6 53.5H41c-.1 0-.2.1-.2.2V57h-1.6v-3.4c0-.1-.1-.2-.2-.2h-1.5c-.1 0-.2.1-.2.2v8.7c0 .1.1.2.2.2H39c.1 0 .2-.1.2-.2v-3.5h1.6v3.5c0 .1.1.2.2.2h1.5c.1 0 .2-.1.2-.2v-8.7s0-.1-.1-.1zM34.5 59.7c0 .3-.1.5-.2.7-.1.2-.4.3-.6.2h-.9v-1.9h.9c.2 0 .4.1.6.2.1.4.2.6.2.8zm-1.7-4.4h.8c.2 0 .4.1.5.2.1.2.2.4.2.6 0 .2-.1.5-.2.7-.1.1-.3.2-.5.2h-.8v-1.7zm3.5 4.4c0-.7-.3-1.4-.9-1.9.5-.5.7-1.1.7-1.7 0-.7-.2-1.3-.7-1.8-.5-.5-1.2-.8-1.9-.8H31c-.1 0-.2.1-.2.2v8.7c0 .1.1.2.2.2h2.6c.8 0 1.5-.3 2-.9.5-.6.7-1.3.7-2M29.6 59.9v-6.2c0-.1-.1-.1-.1-.1h-1.6c-.1 0-.1.1-.2.1v6.2c0 .3-.1.5-.2.7-.3.3-.7.3-1 0l-.1-.1c-.1-.2-.2-.4-.2-.7v-6.2c0-.1-.1-.1-.1-.1h-1.6c-.1 0-.1.1-.2.1v6.2c-.1.7.2 1.5.7 2.1.5.5 1.2.8 1.9.8s1.4-.2 1.9-.8c.6-.6.9-1.3.8-2M21.2 57c-.2.2-.4.3-.6.3h-.8v-1.9h.8c.2 0 .5.1.6.3.2.2.2.4.2.7 0 .2 0 .4-.2.6zm.9 1.6c.2-.1.3-.2.4-.4.5-.5.7-1.3.7-2s-.2-1.4-.7-1.9c-.5-.5-1.2-.9-1.9-.9H18c-.1 0-.2.1-.2.2v8.7c0 .1.1.2.2.2h1.5c.1 0 .2-.1.2-.2v-3.2h.6l1 3.3c0 .1.1.1.1.1H23s.1 0 .1-.1v-.1l-1-3.7M16.1 54.1c-.5-.5-1.2-.8-1.9-.8s-1.4.3-1.9.8c-.5.6-.7 1.3-.7 2v3.7c-.1.7.2 1.5.7 2.1.5.5 1.2.8 1.9.8s1.4-.3 1.9-.8c.5-.6.7-1.3.7-2.1v-2c0-.1-.1-.2-.2-.2h-2.3c-.1 0-.2.1-.2.2v1.5c0 .1.1.2.2.2h.6v.3c0 .3-.1.5-.2.7-.1.2-.3.3-.6.3-.2 0-.4-.1-.6-.2-.2-.2-.2-.5-.2-.7v-3.7c0-.3.1-.5.2-.7.1-.2.3-.3.6-.3.2 0 .4.1.6.2.1.2.2.5.2.7v.3c0 .1.1.1.2.1h1.5c.1 0 .1-.1.2-.1v-.3c0-.7-.2-1.4-.7-2M49.4 18.3c-.1-.1-.1-.2-.2-.4-.4-4.6-1.1-7.6-1.1-7.6-.1-.5-.6-.9-1.1-1l-3.7-.4h-.1c-.4 0-.8.3-.8.8V11c-2.2-2-4.7-3.9-7.4-5.6-.5-.3-1.1-.5-1.8-.5s-1.3.2-1.8.5c-12.6 7.8-19.6 20.5-19.8 21.2-.1.2-.1.3-.1.5 0 .6.4 1.1.9 1.2l3.6.7c.5.1.9.6.9 1.1 0 .6.7 15 1.6 18.7.1.5.6.9 1.2.9 2.1-.1 4.1-.1 6.2-.1h.2c.2 0 .4-.2.4-.4-.1-1.3-.3-4.1-.4-7.1v-.2c0-.3-.2-.5-.4-.6-1.1-.7-1.8-1.8-1.9-3.2-.2-5-.3-10.8 0-15.4 0-.4.3-.7.7-.7.4 0 .7.3.7.7v.1c-.2 3-.2 6.6-.1 10.1 0 .5.4.9.9.9s.9-.4.9-.9c-.1-3.6 0-7.2.1-10.2 0-.4.3-.7.7-.7.4 0 .7.3.7.7v.1c-.2 3-.2 6.6-.1 10.1 0 .5.4.9.9.8.5 0 .9-.4.8-.9-.1-3.5 0-7.1.1-10.2 0-.4.3-.7.7-.7.4 0 .7.3.7.7v.1c-.3 4.4-.2 10 0 14.9v.1c0 1.3-.7 2.5-1.7 3.2-.2.1-.3.3-.3.6 0 0-.1.8.2 4.4.2 1.6.3 2.7.3 3.2 0 .2.2.3.4.3h7.5c.2 0 .4-.1.4-.3.5-4.4.6-6.8.6-6.8 0-.2-.2-.4-.4-.4l-2.5-.3c-.4-.1-.6-.3-.7-.6-.1-.2 0-.4 0-.4 1-14.6 5.8-19.5 5.8-19.5l.2-.2c.1-.1.3-.1.5-.1.3 0 .6.2.7.5 0 0 0 .1.1.4.4 4.6.2 12.4 0 18.5-.2 5.2-.5 9.2-.5 9.2 0 .2.1.3.3.3 1.4 0 2.7.1 4.1.1.6 0 1.1-.4 1.2-.9.9-3.7 1.6-18.1 1.6-18.7.1-.5.4-.9.9-1.1l3.6-.7c.5-.1.9-.6.9-1.2 0-.2 0-.4-.1-.5.2-.5-1.7-4-5.2-8.4"/></svg>