<?xml version="1.0" ?><!DOCTYPE svg  PUBLIC '-//W3C//DTD SVG 1.1//EN'  'http://www.w3.org/Graphics/SVG/1.1/DTD/svg11.dtd'>
    <svg width="512px" height="512px" viewBox="0 0 512 512" version="1.1" xml:space="preserve" xmlns="http://www.w3.org/2000/svg" xmlns:xlink="http://www.w3.org/1999/xlink">
        <g>
            <path d="M262.501-151.602c-43.863,44.825-115.773,45.611-160.598,1.748c-44.853-43.864-45.64-115.777-1.776-160.603L262.501-151.602z" stroke="#000000" stroke-linecap="round" stroke-linejoin="round" stroke-miterlimit="10" stroke-width="20.1478"/>
            <path d="M258.187,265.202c66.157,0,120.111-53.956,120.111-120.115C378.298,78.956,324.344,25,258.187,25 c-66.129,0-120.084,53.956-120.084,120.087C138.103,211.246,192.057,265.202,258.187,265.202L258.187,265.202z" fill="none" stroke="#000000" stroke-linecap="round" stroke-linejoin="round" stroke-miterlimit="10" stroke-width="20.1764"/><path d="M329.888,241.453c-20.005,14.918-44.81,23.749-71.701,23.749c-26.863,0-51.669-8.83-71.673-23.749    c21.376-4.772,45.781-7.516,71.702-7.516C284.106,233.937,308.512,236.681,329.888,241.453L329.888,241.453z" fill="none" stroke="#000000" stroke-linecap="round" stroke-linejoin="round" stroke-miterlimit="10" stroke-width="20.1764"/><path d="    M323.601,99.847c10.06,13.546,16.003,30.322,16.003,48.469c0,15.375-4.286,29.75-11.688,42.011H188.485    c-7.43-12.26-11.688-26.635-11.688-42.011c0-18.147,5.944-34.923,16.003-48.469H323.601z" fill="none" stroke="#000000" stroke-linecap="round" stroke-linejoin="round" stroke-miterlimit="10" stroke-width="20.1764"/><path d="    M212.719,131.455c-5.287,6.944-5.229,11.688-1.657,20.062" fill="none" stroke="#000000" stroke-linecap="round" stroke-linejoin="round" stroke-miterlimit="10" stroke-width="20.1764"/><path d="    M300.624,32.716c-10.517,12.203-26.12,19.948-43.495,19.948c-17.09,0-32.436-7.488-42.953-19.348    C227.808,27.944,242.668,25,258.187,25C273.132,25,287.421,27.744,300.624,32.716L300.624,32.716z" fill="none" stroke="#000000" stroke-linecap="round" stroke-linejoin="round" stroke-miterlimit="10" stroke-width="20.1764"/><path d="    M129.986,187.955h16.004c6.715,17.633,17.518,33.265,31.207,45.783c-4.258-3.858-8.202-8.031-11.86-12.489    c-22.748,1.429-43.667,9.831-60.699,23.063v-31.007C104.638,199.357,116.041,187.955,129.986,187.955L129.986,187.955z     M177.197,233.766c1.086,0.972,2.201,1.943,3.315,2.915C179.397,235.709,178.283,234.737,177.197,233.766L177.197,233.766z     M180.569,236.738c0.543,0.458,1.086,0.915,1.629,1.343C181.655,237.652,181.112,237.195,180.569,236.738L180.569,236.738z     M182.255,238.138c1.115,0.915,2.258,1.8,3.401,2.687C184.513,239.938,183.37,239.053,182.255,238.138L182.255,238.138z     M185.827,240.939c0.572,0.429,1.143,0.857,1.686,1.257C186.97,241.796,186.399,241.368,185.827,240.939L185.827,240.939z     M187.542,242.225c0.6,0.429,1.2,0.857,1.8,1.286C188.742,243.083,188.142,242.654,187.542,242.225L187.542,242.225z     M189.371,243.511c0.543,0.4,1.114,0.8,1.686,1.171C190.485,244.311,189.914,243.911,189.371,243.511L189.371,243.511z     M191.286,244.854c1.172,0.772,2.372,1.543,3.572,2.287C193.658,246.397,192.458,245.626,191.286,244.854L191.286,244.854z     M195.086,247.283c0.543,0.343,1.058,0.657,1.601,0.972C196.144,247.94,195.629,247.626,195.086,247.283L195.086,247.283z     M196.973,248.426c1.2,0.715,2.4,1.4,3.629,2.086C199.373,249.827,198.173,249.141,196.973,248.426L196.973,248.426z     M200.945,250.684c0.515,0.286,1.058,0.572,1.601,0.857C202.002,251.256,201.459,250.97,200.945,250.684L200.945,250.684z     M202.802,251.685c0.629,0.314,1.258,0.657,1.886,0.972C204.06,252.342,203.431,251.999,202.802,251.685L202.802,251.685z     M204.86,252.713c0.543,0.286,1.115,0.571,1.687,0.829C205.975,253.285,205.403,252.999,204.86,252.713L204.86,252.713z     M206.946,253.742c0.571,0.257,1.143,0.543,1.715,0.8C208.089,254.285,207.518,254,206.946,253.742L206.946,253.742z     M208.833,254.6c0.628,0.286,1.286,0.571,1.915,0.857C210.118,255.171,209.461,254.885,208.833,254.6L208.833,254.6z     M211.09,255.6c0.543,0.229,1.058,0.457,1.601,0.657C212.147,256.057,211.633,255.829,211.09,255.6L211.09,255.6z     M213.119,256.458c1.286,0.514,2.572,1,3.858,1.485C215.691,257.458,214.405,256.971,213.119,256.458L213.119,256.458z     M217.463,258.115c0.514,0.171,1.029,0.371,1.543,0.543C218.492,258.486,217.977,258.286,217.463,258.115L217.463,258.115z     M219.463,258.8c0.657,0.229,1.314,0.457,1.972,0.657C220.778,259.257,220.121,259.029,219.463,258.8L219.463,258.8z     M221.635,259.515c0.6,0.2,1.171,0.371,1.772,0.543C222.807,259.886,222.235,259.715,221.635,259.515L221.635,259.515z     M223.95,260.229c0.543,0.172,1.086,0.314,1.629,0.486C225.036,260.543,224.493,260.401,223.95,260.229L223.95,260.229z     M225.95,260.801c0.658,0.2,1.315,0.371,2,0.543C227.265,261.172,226.608,261.001,225.95,260.801L225.95,260.801z     M228.379,261.458c0.543,0.143,1.058,0.257,1.601,0.399C229.437,261.715,228.922,261.601,228.379,261.458L228.379,261.458z     M230.551,262.001c0.6,0.143,1.2,0.285,1.801,0.399C231.751,262.287,231.151,262.144,230.551,262.001L230.551,262.001z     M232.581,262.458c0.686,0.143,1.343,0.286,2.029,0.429C233.924,262.745,233.266,262.601,232.581,262.458L232.581,262.458z     M235.152,262.973c0.543,0.114,1.058,0.2,1.572,0.314C236.21,263.173,235.695,263.087,235.152,262.973L235.152,262.973z     M237.296,263.373c0.686,0.115,1.372,0.229,2.058,0.344C238.667,263.602,237.981,263.488,237.296,263.373L237.296,263.373z     M239.525,263.745c0.628,0.114,1.257,0.2,1.886,0.286C240.782,263.945,240.153,263.859,239.525,263.745L239.525,263.745z     M242.011,264.116c0.543,0.058,1.086,0.144,1.657,0.2C243.097,264.259,242.554,264.173,242.011,264.116L242.011,264.116z     M244.154,264.374c0.686,0.086,1.372,0.171,2.086,0.229C245.526,264.544,244.84,264.459,244.154,264.374L244.154,264.374z     M246.641,264.63c0.572,0.058,1.143,0.114,1.743,0.172C247.784,264.745,247.212,264.688,246.641,264.63L246.641,264.63z     M248.984,264.831c0.6,0.057,1.2,0.086,1.8,0.143C250.184,264.917,249.584,264.887,248.984,264.831L248.984,264.831z     M251.127,265.002c0.686,0.028,1.4,0.057,2.115,0.085C252.528,265.059,251.813,265.031,251.127,265.002L251.127,265.002z     M253.813,265.117c0.543,0.028,1.086,0.028,1.629,0.057C254.899,265.145,254.356,265.145,253.813,265.117L253.813,265.117z     M256.042,265.173c0.714,0,1.429,0.028,2.144,0.028c0.714,0,1.429-0.028,2.143-0.028c-0.714,0-1.429,0.028-2.143,0.028    C257.472,265.202,256.757,265.173,256.042,265.173L256.042,265.173z M260.958,265.173c0.543-0.028,1.086-0.028,1.629-0.057    C262.044,265.145,261.501,265.145,260.958,265.173L260.958,265.173z M263.158,265.087c0.715-0.028,1.43-0.057,2.115-0.085    C264.588,265.031,263.873,265.059,263.158,265.087L263.158,265.087z M265.616,264.973c0.601-0.028,1.2-0.086,1.801-0.143    C266.816,264.887,266.217,264.945,265.616,264.973L265.616,264.973z M268.017,264.802c0.571-0.058,1.144-0.114,1.743-0.172    C269.16,264.688,268.588,264.745,268.017,264.802L268.017,264.802z M270.16,264.602c0.686-0.058,1.4-0.143,2.086-0.229    C271.561,264.459,270.846,264.544,270.16,264.602L270.16,264.602z M272.761,264.316c0.543-0.057,1.086-0.143,1.629-0.2    C273.847,264.173,273.304,264.259,272.761,264.316L272.761,264.316z M274.961,264.031c0.657-0.086,1.314-0.2,1.972-0.286    C276.275,263.831,275.618,263.945,274.961,264.031L274.961,264.031z M277.047,263.716c0.687-0.114,1.372-0.229,2.058-0.344    C278.419,263.488,277.733,263.602,277.047,263.716L277.047,263.716z M279.647,263.288c0.515-0.114,1.058-0.2,1.601-0.314    C280.705,263.087,280.162,263.173,279.647,263.288L279.647,263.288z M281.791,262.887c0.687-0.143,1.344-0.286,2.029-0.429    C283.135,262.601,282.478,262.745,281.791,262.887L281.791,262.887z M284.021,262.401c0.6-0.114,1.2-0.257,1.829-0.399    C285.221,262.144,284.62,262.287,284.021,262.401L284.021,262.401z M286.421,261.858c0.543-0.143,1.086-0.257,1.629-0.399    C287.507,261.601,286.964,261.715,286.421,261.858L286.421,261.858z M288.45,261.344c0.657-0.172,1.314-0.343,2-0.543    C289.765,261.001,289.107,261.172,288.45,261.344L288.45,261.344z M290.821,260.715c0.543-0.172,1.087-0.314,1.63-0.486    C291.908,260.401,291.364,260.543,290.821,260.715L290.821,260.715z M292.994,260.086c0.6-0.2,1.2-0.371,1.8-0.571    C294.194,259.715,293.594,259.886,292.994,260.086L292.994,260.086z M294.937,259.458c0.687-0.2,1.344-0.429,2.001-0.657    C296.28,259.029,295.623,259.257,294.937,259.458L294.937,259.458z M297.338,258.658c0.543-0.172,1.086-0.372,1.6-0.543    C298.424,258.286,297.881,258.486,297.338,258.658L297.338,258.658z M299.396,257.943c1.314-0.485,2.601-0.972,3.886-1.485    C301.996,256.971,300.71,257.458,299.396,257.943L299.396,257.943z M303.682,256.286c0.571-0.229,1.114-0.457,1.657-0.715    C304.796,255.829,304.253,256.057,303.682,256.286L303.682,256.286z M305.625,255.457c0.657-0.257,1.286-0.543,1.943-0.857    C306.911,254.914,306.282,255.2,305.625,255.457L305.625,255.457z M307.711,254.542c0.572-0.257,1.172-0.543,1.772-0.829    C308.883,254,308.283,254.285,307.711,254.542L307.711,254.542z M309.826,253.571c0.6-0.286,1.172-0.572,1.771-0.886    C310.998,252.999,310.426,253.285,309.826,253.571L309.826,253.571z M311.684,252.656c0.657-0.314,1.286-0.657,1.915-0.972    C312.97,251.999,312.341,252.342,311.684,252.656L311.684,252.656z M313.798,251.57c0.572-0.314,1.144-0.6,1.715-0.915    C314.941,250.97,314.37,251.256,313.798,251.57L313.798,251.57z M315.741,250.513c1.258-0.657,2.486-1.372,3.716-2.115    C318.228,249.141,316.999,249.855,315.741,250.513L315.741,250.513z M319.686,248.284c0.543-0.343,1.114-0.686,1.686-1.029    C320.8,247.598,320.229,247.94,319.686,248.284L319.686,248.284z M321.515,247.169c1.229-0.771,2.429-1.543,3.629-2.343    C323.943,245.626,322.743,246.397,321.515,247.169L321.515,247.169z M325.286,244.711c1.801-1.229,3.572-2.486,5.315-3.801    C328.858,242.225,327.087,243.482,325.286,244.711L325.286,244.711z M330.688,240.853c17.747-13.46,31.636-31.75,39.723-52.898    h16.004c13.917,0,25.349,11.403,25.349,25.349v31.579c-16.976-13.432-37.923-22.005-60.728-23.577    C345.033,228.593,338.203,235.138,330.688,240.853L330.688,240.853z" fill="none" stroke="#000000" stroke-linecap="round" stroke-linejoin="round" stroke-miterlimit="10" stroke-width="20.1764"/><path d="    M351.035,221.306C408.333,225.278,454,273.404,454,331.675v158.354H61.686V331.675c0-58.5,46.01-106.769,103.651-110.427    c22.034,26.835,55.441,43.953,92.85,43.953C295.595,265.202,329.002,248.112,351.035,221.306L351.035,221.306z" fill="none" stroke="#000000" stroke-linecap="round" stroke-linejoin="round" stroke-miterlimit="10" stroke-width="20.1764"/><path d="    M61.686,350.566v-18.891c0-13.003,2.286-25.521,6.458-37.151h34.865v56.042H61.686z" fill="none" stroke="#000000" stroke-linecap="round" stroke-linejoin="round" stroke-miterlimit="10" stroke-width="20.1764"/><rect fill="none" height="89.394" stroke="#000000" stroke-linecap="round" stroke-linejoin="round" stroke-miterlimit="10" stroke-width="20.1764" width="168.123" x="174.11" y="345.022"/><line fill="none" stroke="#000000" stroke-linecap="round" stroke-linejoin="round" stroke-miterlimit="10" stroke-width="20.1764" x1="174.11" x2="342.233" y1="375.915" y2="375.915"/><line fill="none" stroke="#000000" stroke-linecap="round" stroke-linejoin="round" stroke-miterlimit="10" stroke-width="20.1764" x1="297.194" x2="297.194" y1="398.606" y2="398.377"/><line fill="none" stroke="#000000" stroke-linecap="round" stroke-linejoin="round" stroke-miterlimit="10" stroke-width="20.1764" x1="174.11" x2="258.157" y1="402.607" y2="402.607"/><line fill="none" stroke="#000000" stroke-linecap="round" stroke-linejoin="round" stroke-miterlimit="10" stroke-width="20.1764" x1="133.959" x2="133.959" y1="382.602" y2="485.742"/><line fill="none" stroke="#000000" stroke-linecap="round" stroke-linejoin="round" stroke-miterlimit="10" stroke-width="20.1764" x1="383.042" x2="383.042" y1="382.602" y2="487.057"/></g></svg>